<?xml version="1.0" standalone="no"?>
<svg viewBox="0 0 200 200" xmlns="http://www.w3.org/2000/svg">
  <path fill="#FF0066" d="M45.5,-72.8C58.8,-62.3,69.2,-49.3,77.4,-34.5C85.7,-19.6,91.7,-2.8,90.5,13.8C89.4,30.4,81.1,46.8,69.1,58.9C57,71,41.3,78.8,24.4,84.2C7.6,89.6,-10.2,92.6,-25.9,88C-41.5,83.4,-55,71.4,-66.5,57.8C-77.9,44.2,-87.4,29.1,-90.1,12.8C-92.7,-3.6,-88.6,-21,-81.3,-37.3C-74.1,-53.5,-63.8,-68.4,-49.8,-78.6C-35.7,-88.7,-17.9,-94,-0.9,-92.7C16.1,-91.4,32.3,-83.3,45.5,-72.8Z" transform="translate(100 100)" />
</svg>
