<svg width="445" height="227" viewBox="0 0 445 227" fill="none" xmlns="http://www.w3.org/2000/svg">
<path d="M58.34 110H33.615V28.35H58.34C72.6 28.35 83.7167 32.03 91.69 39.39C99.74 46.75 103.765 56.6783 103.765 69.175C103.765 81.6717 99.74 91.6 91.69 98.96C83.7167 106.32 72.6 110 58.34 110ZM85.48 93.325C91.8433 87.575 95.025 79.525 95.025 69.175C95.025 58.825 91.8433 50.775 85.48 45.025C79.1933 39.275 69.9933 36.4 57.88 36.4H42.01V101.95H57.88C69.9933 101.95 79.1933 99.075 85.48 93.325ZM176.18 102.065V110H121.325V28.35H176.18V36.285H129.72V64.575H173.765V72.51H129.72V102.065H176.18ZM249.405 28.35H258.605L225.715 110H216.745L183.97 28.35H193.4L221.345 99.305H221.575L249.405 28.35Z" fill="black"/>
<path d="M33.615 110H31.615V112H33.615V110ZM33.615 28.35V26.35H31.615V28.35H33.615ZM91.69 39.39L90.3334 40.8596L90.3405 40.8661L91.69 39.39ZM91.69 98.96L90.3404 97.4839L90.3334 97.4904L91.69 98.96ZM85.48 93.325L84.1391 91.8411L84.1302 91.8492L85.48 93.325ZM85.48 45.025L84.1302 46.5008L84.1391 46.5089L85.48 45.025ZM42.01 36.4V34.4H40.01V36.4H42.01ZM42.01 101.95H40.01V103.95H42.01V101.95ZM58.34 108H33.615V112H58.34V108ZM35.615 110V28.35H31.615V110H35.615ZM33.615 30.35H58.34V26.35H33.615V30.35ZM58.34 30.35C72.2593 30.35 82.8335 33.9366 90.3334 40.8596L93.0466 37.9204C84.5998 30.1234 72.9407 26.35 58.34 26.35V30.35ZM90.3405 40.8661C97.9139 47.7903 101.765 57.1497 101.765 69.175H105.765C105.765 56.2069 101.566 45.7097 93.0395 37.9139L90.3405 40.8661ZM101.765 69.175C101.765 81.2003 97.9139 90.5597 90.3405 97.4839L93.0395 100.436C101.566 92.6403 105.765 82.1431 105.765 69.175H101.765ZM90.3334 97.4904C82.8335 104.413 72.2593 108 58.34 108V112C72.9407 112 84.5998 108.227 93.0466 100.43L90.3334 97.4904ZM86.8209 94.8089C93.6897 88.6022 97.025 79.9636 97.025 69.175H93.025C93.025 79.0864 89.997 86.5478 84.1391 91.8411L86.8209 94.8089ZM97.025 69.175C97.025 58.3864 93.6897 49.7478 86.8209 43.5411L84.1391 46.5089C89.997 51.8022 93.025 59.2636 93.025 69.175H97.025ZM86.8298 43.5492C80.0444 37.343 70.2831 34.4 57.88 34.4V38.4C69.7036 38.4 78.3423 41.207 84.1302 46.5008L86.8298 43.5492ZM57.88 34.4H42.01V38.4H57.88V34.4ZM40.01 36.4V101.95H44.01V36.4H40.01ZM42.01 103.95H57.88V99.95H42.01V103.95ZM57.88 103.95C70.2831 103.95 80.0444 101.007 86.8298 94.8008L84.1302 91.8492C78.3423 97.143 69.7036 99.95 57.88 99.95V103.95ZM176.18 102.065H178.18V100.065H176.18V102.065ZM176.18 110V112H178.18V110H176.18ZM121.325 110H119.325V112H121.325V110ZM121.325 28.35V26.35H119.325V28.35H121.325ZM176.18 28.35H178.18V26.35H176.18V28.35ZM176.18 36.285V38.285H178.18V36.285H176.18ZM129.72 36.285V34.285H127.72V36.285H129.72ZM129.72 64.575H127.72V66.575H129.72V64.575ZM173.765 64.575H175.765V62.575H173.765V64.575ZM173.765 72.51V74.51H175.765V72.51H173.765ZM129.72 72.51V70.51H127.72V72.51H129.72ZM129.72 102.065H127.72V104.065H129.72V102.065ZM174.18 102.065V110H178.18V102.065H174.18ZM176.18 108H121.325V112H176.18V108ZM123.325 110V28.35H119.325V110H123.325ZM121.325 30.35H176.18V26.35H121.325V30.35ZM174.18 28.35V36.285H178.18V28.35H174.18ZM176.18 34.285H129.72V38.285H176.18V34.285ZM127.72 36.285V64.575H131.72V36.285H127.72ZM129.72 66.575H173.765V62.575H129.72V66.575ZM171.765 64.575V72.51H175.765V64.575H171.765ZM173.765 70.51H129.72V74.51H173.765V70.51ZM127.72 72.51V102.065H131.72V72.51H127.72ZM129.72 104.065H176.18V100.065H129.72V104.065ZM249.405 28.35V26.35H248.041L247.543 27.6197L249.405 28.35ZM258.605 28.35L260.46 29.0973L261.567 26.35H258.605V28.35ZM225.715 110V112H227.066L227.57 110.747L225.715 110ZM216.745 110L214.889 110.745L215.393 112H216.745V110ZM183.97 28.35V26.35H181.012L182.114 29.095L183.97 28.35ZM193.4 28.35L195.261 27.6171L194.762 26.35H193.4V28.35ZM221.345 99.305L219.484 100.038L219.983 101.305H221.345V99.305ZM221.575 99.305V101.305H222.939L223.437 100.035L221.575 99.305ZM249.405 30.35H258.605V26.35H249.405V30.35ZM256.75 27.6027L223.86 109.253L227.57 110.747L260.46 29.0973L256.75 27.6027ZM225.715 108H216.745V112H225.715V108ZM218.601 109.255L185.826 27.605L182.114 29.095L214.889 110.745L218.601 109.255ZM183.97 30.35H193.4V26.35H183.97V30.35ZM191.539 29.0829L219.484 100.038L223.206 98.5721L195.261 27.6171L191.539 29.0829ZM221.345 101.305H221.575V97.305H221.345V101.305ZM223.437 100.035L251.267 29.0803L247.543 27.6197L219.713 98.5747L223.437 100.035Z" fill="black"/>
<path d="M33.592 224H32.592V225H33.592V224ZM33.592 126.02V125.02H32.592V126.02H33.592ZM97.486 133.334L96.8178 134.078L96.8178 134.078L97.486 133.334ZM101.764 166.04L100.938 165.476L100.933 165.483L100.929 165.49L101.764 166.04ZM91.414 174.458L91.0294 173.535L88.5852 174.553L91.0925 175.405L91.414 174.458ZM103.006 182.876L102.195 183.461L102.201 183.47L103.006 182.876ZM98.866 216.824L99.5148 217.585L99.5219 217.579L98.866 216.824ZM50.014 182.048V181.048H49.014V182.048H50.014ZM50.014 208.82H49.014V209.82H50.014V208.82ZM86.308 185.636L85.6531 186.392L85.6604 186.398L85.6678 186.404L86.308 185.636ZM50.014 141.2V140.2H49.014V141.2H50.014ZM50.014 166.73H49.014V167.73H50.014V166.73ZM84.928 144.65L84.262 145.396L84.2696 145.403L84.2772 145.409L84.928 144.65ZM74.716 223H33.592V225H74.716V223ZM34.592 224V126.02H32.592V224H34.592ZM33.592 127.02H73.198V125.02H33.592V127.02ZM73.198 127.02C83.8301 127.02 91.6438 129.43 96.8178 134.078L98.1543 132.59C92.4723 127.486 84.0939 125.02 73.198 125.02V127.02ZM96.8178 134.078C102.013 138.745 104.628 144.903 104.628 152.654H106.628C106.628 144.397 103.815 137.675 98.1543 132.59L96.8178 134.078ZM104.628 152.654C104.628 157.631 103.387 161.891 100.938 165.476L102.59 166.604C105.293 162.645 106.628 157.981 106.628 152.654H104.628ZM100.929 165.49C98.5612 169.085 95.2729 171.767 91.0294 173.535L91.7986 175.381C96.3872 173.469 99.9989 170.539 102.599 166.59L100.929 165.49ZM91.0925 175.405C95.7833 176.998 99.4715 179.683 102.195 183.461L103.817 182.291C100.837 178.157 96.7968 175.23 91.7356 173.511L91.0925 175.405ZM102.201 183.47C104.915 187.146 106.284 191.487 106.284 196.538H108.284C108.284 191.101 106.801 186.334 103.811 182.282L102.201 183.47ZM106.284 196.538C106.284 204.949 103.567 211.415 98.2102 216.069L99.5219 217.579C105.389 212.481 108.284 205.423 108.284 196.538H106.284ZM98.2173 216.063C92.8495 220.639 85.0652 223 74.716 223V225C85.3428 225 93.6586 222.577 99.5148 217.585L98.2173 216.063ZM74.578 181.048H50.014V183.048H74.578V181.048ZM49.014 182.048V208.82H51.014V182.048H49.014ZM50.014 209.82H74.44V207.82H50.014V209.82ZM74.44 209.82C79.8909 209.82 84.1653 208.684 87.0875 206.241C90.044 203.768 91.448 200.102 91.448 195.434H89.448C89.448 199.69 88.1841 202.717 85.8045 204.706C83.3907 206.725 79.6611 207.82 74.44 207.82V209.82ZM91.448 195.434C91.448 190.964 89.9777 187.392 86.9482 184.868L85.6678 186.404C88.1584 188.48 89.448 191.44 89.448 195.434H91.448ZM86.963 184.88C83.9617 182.279 79.7861 181.048 74.578 181.048V183.048C79.49 183.048 83.1344 184.209 85.6531 186.392L86.963 184.88ZM73.336 140.2H50.014V142.2H73.336V140.2ZM49.014 141.2V166.73H51.014V141.2H49.014ZM50.014 167.73H73.336V165.73H50.014V167.73ZM73.336 167.73C78.5996 167.73 82.7331 166.653 85.5628 164.329C88.4301 161.973 89.792 158.478 89.792 154.034H87.792C87.792 158.054 86.578 160.907 84.2933 162.783C81.971 164.691 78.3765 165.73 73.336 165.73V167.73ZM89.792 154.034C89.792 149.756 88.4196 146.326 85.5788 143.891L84.2772 145.409C86.5885 147.39 87.792 150.216 87.792 154.034H89.792ZM85.5941 143.904C82.7627 141.376 78.616 140.2 73.336 140.2V142.2C78.3601 142.2 81.9413 143.324 84.262 145.396L85.5941 143.904ZM147.3 149.618L146.577 148.927L146.577 148.927L147.3 149.618ZM147.3 200.402L146.577 201.093L146.577 201.093L147.3 200.402ZM194.772 200.402L195.494 201.093L195.494 201.093L194.772 200.402ZM194.772 149.618L195.494 148.927L195.494 148.927L194.772 149.618ZM134.604 211.58L133.887 212.277L133.89 212.28L134.604 211.58ZM134.604 138.578L135.318 139.278L135.321 139.275L134.604 138.578ZM207.468 138.578L206.751 139.275L206.754 139.278L207.468 138.578ZM207.468 211.58L208.182 212.28L208.185 212.277L207.468 211.58ZM146.577 148.927C140.204 155.585 137.054 164.313 137.054 175.01H139.054C139.054 164.731 142.067 156.531 148.022 150.309L146.577 148.927ZM137.054 175.01C137.054 185.707 140.204 194.435 146.577 201.093L148.022 199.711C142.067 193.489 139.054 185.289 139.054 175.01H137.054ZM146.577 201.093C152.947 207.748 161.128 211.062 171.036 211.062V209.062C161.623 209.062 153.981 205.936 148.022 199.711L146.577 201.093ZM171.036 211.062C180.943 211.062 189.125 207.748 195.494 201.093L194.049 199.711C188.091 205.936 180.448 209.062 171.036 209.062V211.062ZM195.494 201.093C201.867 194.435 205.018 185.707 205.018 175.01H203.018C203.018 185.289 200.004 193.489 194.049 199.711L195.494 201.093ZM205.018 175.01C205.018 164.313 201.867 155.585 195.494 148.927L194.049 150.309C200.004 156.531 203.018 164.731 203.018 175.01H205.018ZM195.494 148.927C189.125 142.272 180.943 138.958 171.036 138.958V140.958C180.448 140.958 188.091 144.084 194.049 150.309L195.494 148.927ZM171.036 138.958C161.128 138.958 152.947 142.272 146.577 148.927L148.022 150.309C153.981 144.084 161.623 140.958 171.036 140.958V138.958ZM135.321 210.883C126.041 201.333 121.39 189.399 121.39 175.01H119.39C119.39 189.877 124.215 202.323 133.887 212.277L135.321 210.883ZM121.39 175.01C121.39 160.621 126.041 148.735 135.318 139.278L133.89 137.878C124.215 147.741 119.39 160.143 119.39 175.01H121.39ZM135.321 139.275C144.591 129.735 156.467 124.95 171.036 124.95V122.95C155.98 122.95 143.569 127.917 133.887 137.881L135.321 139.275ZM171.036 124.95C185.604 124.95 197.481 129.735 206.751 139.275L208.185 137.881C198.503 127.917 186.091 122.95 171.036 122.95V124.95ZM206.754 139.278C216.031 148.735 220.682 160.621 220.682 175.01H222.682C222.682 160.143 217.857 147.741 208.182 137.878L206.754 139.278ZM220.682 175.01C220.682 189.399 216.031 201.333 206.751 210.883L208.185 212.277C217.857 202.323 222.682 189.877 222.682 175.01H220.682ZM206.754 210.88C197.485 220.329 185.607 225.07 171.036 225.07V227.07C186.088 227.07 198.499 222.151 208.182 212.28L206.754 210.88ZM171.036 225.07C156.464 225.07 144.587 220.329 135.318 210.88L133.89 212.28C143.573 222.151 155.983 227.07 171.036 227.07V225.07ZM261.042 149.618L260.319 148.927L260.319 148.927L261.042 149.618ZM261.042 200.402L260.319 201.093L260.319 201.093L261.042 200.402ZM308.514 200.402L309.236 201.093L309.236 201.093L308.514 200.402ZM308.514 149.618L309.236 148.927L309.236 148.927L308.514 149.618ZM248.346 211.58L247.629 212.277L247.632 212.28L248.346 211.58ZM248.346 138.578L249.06 139.278L249.063 139.275L248.346 138.578ZM321.21 138.578L320.493 139.275L320.496 139.278L321.21 138.578ZM321.21 211.58L321.924 212.28L321.927 212.277L321.21 211.58ZM260.319 148.927C253.946 155.585 250.796 164.313 250.796 175.01H252.796C252.796 164.731 255.809 156.531 261.764 150.309L260.319 148.927ZM250.796 175.01C250.796 185.707 253.946 194.435 260.319 201.093L261.764 199.711C255.809 193.489 252.796 185.289 252.796 175.01H250.796ZM260.319 201.093C266.689 207.748 274.87 211.062 284.778 211.062V209.062C275.365 209.062 267.723 205.936 261.764 199.711L260.319 201.093ZM284.778 211.062C294.685 211.062 302.867 207.748 309.236 201.093L307.791 199.711C301.833 205.936 294.19 209.062 284.778 209.062V211.062ZM309.236 201.093C315.609 194.435 318.76 185.707 318.76 175.01H316.76C316.76 185.289 313.746 193.489 307.791 199.711L309.236 201.093ZM318.76 175.01C318.76 164.313 315.609 155.585 309.236 148.927L307.791 150.309C313.746 156.531 316.76 164.731 316.76 175.01H318.76ZM309.236 148.927C302.867 142.272 294.685 138.958 284.778 138.958V140.958C294.19 140.958 301.833 144.084 307.791 150.309L309.236 148.927ZM284.778 138.958C274.87 138.958 266.689 142.272 260.319 148.927L261.764 150.309C267.723 144.084 275.365 140.958 284.778 140.958V138.958ZM249.063 210.883C239.783 201.333 235.132 189.399 235.132 175.01H233.132C233.132 189.877 237.957 202.323 247.629 212.277L249.063 210.883ZM235.132 175.01C235.132 160.621 239.783 148.735 249.06 139.278L247.632 137.878C237.957 147.741 233.132 160.143 233.132 175.01H235.132ZM249.063 139.275C258.333 129.735 270.209 124.95 284.778 124.95V122.95C269.722 122.95 257.311 127.917 247.629 137.881L249.063 139.275ZM284.778 124.95C299.346 124.95 311.223 129.735 320.493 139.275L321.927 137.881C312.245 127.917 299.833 122.95 284.778 122.95V124.95ZM320.496 139.278C329.773 148.735 334.424 160.621 334.424 175.01H336.424C336.424 160.143 331.599 147.741 321.924 137.878L320.496 139.278ZM334.424 175.01C334.424 189.399 329.773 201.333 320.493 210.883L321.927 212.277C331.599 202.323 336.424 189.877 336.424 175.01H334.424ZM320.496 210.88C311.227 220.329 299.349 225.07 284.778 225.07V227.07C299.83 227.07 312.241 222.151 321.924 212.28L320.496 210.88ZM284.778 225.07C270.206 225.07 258.329 220.329 249.06 210.88L247.632 212.28C257.315 222.151 269.725 227.07 284.778 227.07V225.07ZM439.23 224V225H441.164L440.046 223.422L439.23 224ZM418.392 224L417.573 224.574L417.872 225H418.392V224ZM387.066 179.288L387.885 178.714L387.188 177.719L386.345 178.595L387.066 179.288ZM369.954 197.09L369.233 196.397L368.954 196.687V197.09H369.954ZM369.954 224V225H370.954V224H369.954ZM353.256 224H352.256V225H353.256V224ZM353.256 126.02V125.02H352.256V126.02H353.256ZM369.954 126.02H370.954V125.02H369.954V126.02ZM369.954 175.976H368.954V178.563L370.694 176.649L369.954 175.976ZM415.356 126.02V125.02H414.914L414.616 125.347L415.356 126.02ZM437.298 126.02L438.023 126.708L439.626 125.02H437.298V126.02ZM398.658 166.73L397.933 166.042L397.367 166.638L397.842 167.308L398.658 166.73ZM439.23 223H418.392V225H439.23V223ZM419.211 223.426L387.885 178.714L386.247 179.862L417.573 224.574L419.211 223.426ZM386.345 178.595L369.233 196.397L370.675 197.783L387.787 179.981L386.345 178.595ZM368.954 197.09V224H370.954V197.09H368.954ZM369.954 223H353.256V225H369.954V223ZM354.256 224V126.02H352.256V224H354.256ZM353.256 127.02H369.954V125.02H353.256V127.02ZM368.954 126.02V175.976H370.954V126.02H368.954ZM370.694 176.649L416.096 126.693L414.616 125.347L369.214 175.303L370.694 176.649ZM415.356 127.02H437.298V125.02H415.356V127.02ZM436.573 125.332L397.933 166.042L399.383 167.418L438.023 126.708L436.573 125.332ZM397.842 167.308L438.414 224.578L440.046 223.422L399.474 166.152L397.842 167.308Z" fill="black"/>
<path d="M17.5734 226.001L17.5734 25.9955" stroke="black" stroke-width="5"/>
<path d="M3 226.005L3 25.9999" stroke="black" stroke-width="5"/>
</svg>
