<?xml version="1.0" standalone="no"?><svg xmlns="http://www.w3.org/2000/svg" viewBox="0 0 1440 320"><path fill="#273036" fill-opacity="1" d="M0,192L0,96L46.5,96L46.5,256L92.9,256L92.9,160L139.4,160L139.4,160L185.8,160L185.8,128L232.3,128L232.3,64L278.7,64L278.7,256L325.2,256L325.2,128L371.6,128L371.6,32L418.1,32L418.1,64L464.5,64L464.5,32L511,32L511,192L557.4,192L557.4,64L603.9,64L603.9,224L650.3,224L650.3,192L696.8,192L696.8,64L743.2,64L743.2,0L789.7,0L789.7,256L836.1,256L836.1,160L882.6,160L882.6,32L929,32L929,64L975.5,64L975.5,128L1021.9,128L1021.9,192L1068.4,192L1068.4,0L1114.8,0L1114.8,128L1161.3,128L1161.3,128L1207.7,128L1207.7,96L1254.2,96L1254.2,64L1300.6,64L1300.6,160L1347.1,160L1347.1,224L1393.5,224L1393.5,256L1440,256L1440,320L1393.5,320L1393.5,320L1347.1,320L1347.1,320L1300.6,320L1300.6,320L1254.2,320L1254.2,320L1207.7,320L1207.7,320L1161.3,320L1161.3,320L1114.8,320L1114.8,320L1068.4,320L1068.4,320L1021.9,320L1021.9,320L975.5,320L975.5,320L929,320L929,320L882.6,320L882.6,320L836.1,320L836.1,320L789.7,320L789.7,320L743.2,320L743.2,320L696.8,320L696.8,320L650.3,320L650.3,320L603.9,320L603.9,320L557.4,320L557.4,320L511,320L511,320L464.5,320L464.5,320L418.1,320L418.1,320L371.6,320L371.6,320L325.2,320L325.2,320L278.7,320L278.7,320L232.3,320L232.3,320L185.8,320L185.8,320L139.4,320L139.4,320L92.9,320L92.9,320L46.5,320L46.5,320L0,320L0,320Z"></path></svg>